<svg width="75" height="16" fill="none" xmlns="http://www.w3.org/2000/svg"><path d="M12.175 0h2.884v9.352c0 4.92-3.075 6.648-7.537 6.648C3.076 16 0 14.273 0 9.352V.375C0 .115.127 0 .382 0h2.885v9.206c0 2.949 1.275 4.17 4.255 4.17 2.996 0 4.27-1.221 4.27-4.17V.375c0-.26.128-.375.383-.375Zm32.653 2.558v3.943h7.298c.128 0 .176.065.128.196l-.797 2.02c-.08.18-.191.26-.43.26H46.74c-1.402 0-1.912.44-1.912 1.402v2.786h9.88c.128 0 .175.065.128.196l-.83 2.101c-.079.18-.19.261-.43.261h-10.82c-.829 0-1.147-.293-1.147-.929V1.092c0-.766.414-1.092 1.498-1.092h11.601c.128 0 .175.065.128.18l-.83 2.117c-.079.18-.19.261-.43.261h-8.748Zm-9.163 8.815c0 3.144-2.168 4.35-5.211 4.35H22.39c-.845 0-1.147-.293-1.147-.929V1.092C21.243.326 21.64 0 22.74 0h6.55c2.868 0 5.64.505 5.64 3.992 0 1.499-.525 2.77-1.784 3.438 1.737.472 2.518 2.069 2.518 3.943ZM24.414 6.55h5.115c1.69 0 2.168-.668 2.168-2.037 0-1.368-.479-2.02-2.168-2.02h-5.115V6.55Zm8.016 4.53c0-1.45-.494-2.168-2.311-2.168h-3.777c-1.402 0-1.928.44-1.928 1.402v2.916h5.705c1.817 0 2.31-.717 2.31-2.15Zm42.39 4.643h-2.933c-.239 0-.335-.098-.43-.26l-3.108-5.736h-2.852c-1.403 0-1.929.44-1.929 1.401v4.595h-2.804c-.255 0-.383-.13-.383-.375V1.092C60.381.326 60.796 0 61.88 0h6.582c3.84 0 6.151 1.026 6.151 4.84 0 2.948-1.386 4.105-3.108 4.561l3.459 6.045c.063.098.063.277-.144.277ZM71.376 4.904c0-1.596-.43-2.379-2.438-2.379h-5.37v4.758h5.37c2.008 0 2.438-.766 2.438-2.379Z" fill="#666"/></svg>