<svg width="95" height="21" fill="none" xmlns="http://www.w3.org/2000/svg"><path d="M94.178 9.096V7.44h-2.057V4.865l-.069.02-1.97.604v1.95h-3.049V6.353c-.03-.412.09-.82.336-1.152a1.185 1.185 0 0 1 .943-.385c.309.004.613.073.893.203l.076.034V3.31l-.035-.013a3.484 3.484 0 0 0-1.143-.152 3.348 3.348 0 0 0-1.62.39 2.77 2.77 0 0 0-1.112 1.098 3.277 3.277 0 0 0-.394 1.613V7.44h-1.432v1.656h1.432v6.977h2.056V9.096h3.05v4.433c0 1.827.86 2.751 2.56 2.751.293-.002.586-.034.873-.097.22-.037.434-.105.635-.201l.028-.016v-1.672l-.084.056a1.44 1.44 0 0 1-.413.178c-.132.04-.269.064-.407.069a1.103 1.103 0 0 1-.875-.319 1.717 1.717 0 0 1-.279-1.106V9.096h2.057Zm-15.225 5.502a2.18 2.18 0 0 1-1.749-.735 3.12 3.12 0 0 1-.628-2.075 3.244 3.244 0 0 1 .628-2.13 2.146 2.146 0 0 1 1.732-.747 2.114 2.114 0 0 1 1.687.713 3.18 3.18 0 0 1 .616 2.113 3.39 3.39 0 0 1-.58 2.14 2.062 2.062 0 0 1-1.706.721Zm.091-7.37a4.509 4.509 0 0 0-3.36 1.24 4.65 4.65 0 0 0-1.214 3.385 4.404 4.404 0 0 0 1.185 3.231 4.299 4.299 0 0 0 3.181 1.194 4.385 4.385 0 0 0 3.294-1.257 4.635 4.635 0 0 0 1.215-3.351 4.524 4.524 0 0 0-1.14-3.254 4.196 4.196 0 0 0-3.16-1.186v-.002Zm-7.89.002a3.717 3.717 0 0 0-2.38.736 2.35 2.35 0 0 0-.929 1.916c-.007.367.061.731.2 1.07.138.313.349.588.614.803a5.37 5.37 0 0 0 1.249.698c.356.14.703.302 1.04.485.176.092.332.22.457.375a.844.844 0 0 1 .127.49c0 .58-.434.863-1.328.863a3.655 3.655 0 0 1-1.124-.206 4.223 4.223 0 0 1-1.151-.583l-.086-.061v1.98l.031.014c.35.152.716.265 1.09.336.383.084.773.129 1.164.134a3.946 3.946 0 0 0 2.515-.74 2.396 2.396 0 0 0 .936-1.961 2.256 2.256 0 0 0-.504-1.484 4.318 4.318 0 0 0-1.711-1.09 4.414 4.414 0 0 1-1.22-.634.888.888 0 0 1-.245-.665.74.74 0 0 1 .312-.615c.256-.177.564-.264.875-.247a3.6 3.6 0 0 1 1.041.16c.323.094.63.236.91.422l.084.057V7.608l-.032-.014a4.485 4.485 0 0 0-.924-.257 5.638 5.638 0 0 0-1.013-.105l.003-.002Zm-8.668 7.368a2.181 2.181 0 0 1-1.75-.735 3.12 3.12 0 0 1-.627-2.073 3.244 3.244 0 0 1 .628-2.13 2.145 2.145 0 0 1 1.732-.747 2.114 2.114 0 0 1 1.687.713 3.18 3.18 0 0 1 .616 2.113 3.39 3.39 0 0 1-.58 2.14 2.06 2.06 0 0 1-1.706.72Zm.092-7.367a4.509 4.509 0 0 0-3.36 1.24 4.649 4.649 0 0 0-1.215 3.384 4.403 4.403 0 0 0 1.186 3.231 4.298 4.298 0 0 0 3.181 1.194 4.387 4.387 0 0 0 3.294-1.257 4.635 4.635 0 0 0 1.214-3.351 4.523 4.523 0 0 0-1.14-3.254 4.194 4.194 0 0 0-3.16-1.186V7.23Zm-7.696 1.704V7.44h-2.03v8.633h2.03v-4.417a3.08 3.08 0 0 1 .507-1.833 1.552 1.552 0 0 1 1.314-.694c.207.003.412.033.61.09.168.036.328.101.474.19l.086.063V7.425l-.033-.014a2.102 2.102 0 0 0-.795-.121 2.081 2.081 0 0 0-1.359.487 2.751 2.751 0 0 0-.781 1.159h-.023Zm-5.667-1.704a5.013 5.013 0 0 0-2.47.594A4 4 0 0 0 45.116 9.5a5.334 5.334 0 0 0-.559 2.481 4.58 4.58 0 0 0 .544 2.225 3.82 3.82 0 0 0 1.52 1.536 4.523 4.523 0 0 0 2.22.54 4.861 4.861 0 0 0 2.451-.574l.027-.015v-1.86l-.086.062c-.303.22-.638.394-.993.517a3 3 0 0 1-.973.189 2.502 2.502 0 0 1-1.901-.741 2.882 2.882 0 0 1-.702-2.053 2.99 2.99 0 0 1 .731-2.108 2.487 2.487 0 0 1 1.905-.786c.7.01 1.378.247 1.933.672l.086.062v-1.96l-.028-.016a3.352 3.352 0 0 0-.94-.318 5.613 5.613 0 0 0-1.135-.122h-.001Zm-6.056.208h-2.03v8.634h2.03V7.44Zm-.994-3.678a1.224 1.224 0 0 0-.866.34 1.12 1.12 0 0 0-.362.846 1.086 1.086 0 0 0 .357.83c.235.22.547.339.869.332.323.006.635-.112.873-.33a1.083 1.083 0 0 0 .363-.832 1.14 1.14 0 0 0-.354-.837 1.213 1.213 0 0 0-.883-.349h.003Zm-5.07 3.041v9.272h2.073V4.026H36.3l-3.647 8.949-3.538-8.949h-2.987v12.047h1.948V6.8h.067l3.736 9.272h1.471L37.03 6.8l.066.001ZM9.554 9.554H0V0h9.554v9.554Zm10.548 0H10.55V0h9.553v9.554ZM9.554 20.106H0v-9.554h9.554v9.554Zm10.548 0H10.55v-9.554h9.553v9.554Z" fill="#666"/></svg>